<svg width="16" height="16" viewBox="0 0 16 16" fill="none" xmlns="http://www.w3.org/2000/svg">
<path fill-rule="evenodd" clip-rule="evenodd" d="M14.9271 1.07292C15.5311 1.67698 15.5311 2.65636 14.9271 3.26042L10.1875 8L14.9271 12.7396C15.5311 13.3436 15.5311 14.323 14.9271 14.9271C14.323 15.5312 13.3436 15.5311 12.7396 14.9271L8 10.1875L3.26042 14.9271C2.65635 15.5311 1.67698 15.5312 1.07292 14.9271C0.468853 14.323 0.468854 13.3436 1.07291 12.7396L5.8125 8L1.07292 3.26042C0.468854 2.65636 0.468854 1.67698 1.07292 1.07292C1.67698 0.468858 2.65635 0.468859 3.26042 1.07292L8 5.8125L12.7396 1.07292C13.3436 0.468859 14.323 0.468858 14.9271 1.07292Z" fill="#00A7FE"/>
</svg>
