<svg width="25" height="24" viewBox="0 0 25 24" fill="none" xmlns="http://www.w3.org/2000/svg">
<path d="M12.5 5.8203C11.7973 5.8203 11.0947 5.90107 10.406 6.0626C10.013 6.15479 9.63776 6.29122 9.28571 6.46643M12.5 5.8203C13.2026 5.8203 13.9053 5.90107 14.5939 6.0626C14.9869 6.15479 15.3622 6.29122 15.7142 6.46643M12.5 5.8203V3M9.28571 6.46643V3M9.28571 6.46643C8.28153 6.96621 7.4662 7.78153 6.96641 8.78571M15.7142 6.46643V3M15.7142 6.46643C16.7184 6.96621 17.5337 7.78153 18.0335 8.78571M6.32027 12C6.32027 12.7027 6.40103 13.4053 6.56257 14.0939C6.65476 14.487 6.79119 14.8622 6.96641 15.2143M6.32027 12C6.32027 11.2973 6.40103 10.5947 6.56257 9.90606C6.65476 9.51304 6.79119 9.13777 6.96641 8.78571M6.32027 12H3.5M6.96641 8.78571H3.5M6.96641 15.2143H3.5M6.96641 15.2143C7.4662 16.2185 8.28153 17.0338 9.28571 17.5336M12.5 18.1797C13.2026 18.1797 13.9053 18.0989 14.5939 17.9374C14.9869 17.8452 15.3622 17.7088 15.7142 17.5336M12.5 18.1797C11.7973 18.1797 11.0947 18.0989 10.406 17.9374C10.013 17.8452 9.63776 17.7088 9.28571 17.5336M12.5 18.1797V21M9.28571 17.5336V21M15.7142 17.5336V21M15.7142 17.5336C16.7184 17.0338 17.5337 16.2185 18.0335 15.2143M18.6797 12C18.6797 11.2974 18.5989 10.5947 18.4374 9.90607C18.3452 9.51304 18.2087 9.13777 18.0335 8.78571M18.6797 12C18.6797 12.7027 18.5989 13.4053 18.4374 14.0939C18.3452 14.487 18.2087 14.8622 18.0335 15.2143M18.6797 12H21.5M18.0335 8.78571H21.5M18.0335 15.2143H21.5" stroke="white" stroke-width="1.5" stroke-linecap="round"/>
<path d="M9.72921 11.0228C9.93797 10.1329 10.6329 9.43797 11.5228 9.22921V9.22921C12.1656 9.07845 12.8344 9.07845 13.4772 9.22921V9.22921C14.3671 9.43797 15.062 10.1329 15.2708 11.0228V11.0228C15.4215 11.6656 15.4216 12.3344 15.2708 12.9772V12.9772C15.062 13.8671 14.3671 14.562 13.4772 14.7708V14.7708C12.8344 14.9216 12.1656 14.9215 11.5228 14.7708V14.7708C10.6329 14.562 9.93797 13.8671 9.72921 12.9772V12.9772C9.57845 12.3344 9.57845 11.6656 9.72921 11.0228V11.0228Z" stroke="white" stroke-width="1.5"/>
</svg>
