<svg width="327" height="43" viewBox="0 0 327 43" fill="none" xmlns="http://www.w3.org/2000/svg">
<path fill-rule="evenodd" clip-rule="evenodd" d="M0.0139432 0.104685C10.3551 0.119058 20.701 0.104685 31.0422 0.109476C32.6317 0.119058 34.2305 0.0759379 35.8154 0.210089C38.1904 0.492765 40.6397 1.08207 42.5825 2.58169C43.8002 3.59741 44.7204 5.01078 45.0969 6.58227C45.5802 8.60412 45.3339 10.7026 45.399 12.758C45.4594 14.8805 44.8552 17.094 43.3912 18.6367C42.6661 19.4081 41.6947 19.8584 40.7048 20.1267C42.2013 20.6634 43.7444 21.3772 44.6786 22.7619C45.3386 23.6051 45.5942 24.6639 45.8126 25.6988C45.8963 28.7364 45.9056 31.7835 45.8126 34.8211C45.65 35.4727 45.4966 36.1291 45.2735 36.7567C44.5206 38.7211 42.866 40.1344 41.0487 40.9968C38.618 41.9599 36.0106 42.3767 33.4125 42.3623C22.2765 42.3575 11.1406 42.3719 0 42.3527C0.0232386 28.2764 0.0139432 14.1906 0.0139432 0.104685ZM7.63156 6.42416C7.6641 10.051 7.65016 13.6731 7.64086 17.3C16.1462 17.3431 24.6515 17.3 33.1569 17.3192C34.3839 17.3096 35.741 17.2617 36.7635 16.4663C37.4978 15.8914 37.7628 14.9044 37.7581 13.9941C37.7581 12.5999 37.7674 11.2057 37.7581 9.81148C37.7209 8.9395 37.614 7.94295 36.9215 7.34406C35.8758 6.46728 34.4582 6.40021 33.1708 6.33792C25.0884 6.33313 17.006 6.33792 8.91899 6.33313C8.48675 6.33313 8.05916 6.37146 7.63156 6.41937V6.42416ZM7.64551 23.6099C7.65945 27.7734 7.64086 31.9368 7.6548 36.1051C16.0811 36.1051 24.5075 36.1051 32.9338 36.1051C34.1747 36.1195 35.425 35.9278 36.559 35.3864C37.7999 34.4522 38.3019 33.2113 38.2368 31.6302C38.2368 30.0491 38.288 28.3483 38.2415 26.9349C38.1671 24.525 35.6666 23.5428 33.6309 23.6099C24.9676 23.6051 16.3042 23.6003 7.64086 23.6099H7.64551ZM54.7363 0.12864C57.3157 0.114267 59.8952 0.080729 62.4747 0.147805C62.4747 14.2049 62.4515 28.2668 62.4887 42.3288C59.9045 42.4006 57.3158 42.3863 54.7316 42.3383C54.7595 28.2716 54.7502 14.2001 54.7363 0.12864ZM69.1814 0.114267C85.6808 0.109476 102.185 0.114267 118.684 0.104685C118.689 2.18403 118.675 4.26337 118.689 6.34271C111.824 6.33313 104.964 6.36667 98.1042 6.32355C98.0391 18.3301 98.0856 30.3462 98.0809 42.3527C95.5154 42.3575 92.9545 42.3863 90.3936 42.3383C90.3983 30.3318 90.4401 18.3205 90.3704 6.31876C83.3058 6.37146 76.2366 6.33792 69.1721 6.33792C69.1721 4.25858 69.1674 2.18403 69.1767 0.109476L69.1814 0.114267ZM125.228 0.114267C127.613 0.138222 130.006 0.0424001 132.386 0.157387C136.308 5.82048 140.25 11.474 144.2 17.1227C147.17 21.4012 150.135 25.6796 153.133 29.9437C154.165 31.52 155.332 33.0005 156.312 34.6103C158.134 32.071 159.91 29.4934 161.676 26.911C167.871 17.9851 174.067 9.05928 180.248 0.123849C182.437 0.0951024 184.631 0.114267 186.825 0.114267C186.815 14.1953 186.815 28.2764 186.825 42.3575C184.468 42.3575 182.107 42.3767 179.751 42.3479C179.751 32.4926 179.802 22.6373 179.723 12.782C174.899 19.8393 169.958 26.8151 165.11 33.8581C163.158 36.6561 161.197 39.4493 159.268 42.2617C158.929 42.4246 158.539 42.3383 158.181 42.3671C156.433 42.3431 154.686 42.3958 152.938 42.3431C151.163 39.938 149.485 37.4514 147.77 35.0032C143.438 28.8322 139.134 22.6469 134.812 16.4711C134.003 15.2542 133.06 14.1283 132.367 12.8347C132.237 22.6708 132.335 32.5166 132.316 42.3527C129.955 42.3719 127.594 42.3623 125.228 42.3575C125.228 28.2764 125.228 14.1953 125.228 0.114267ZM218.782 0.195716C220.66 -0.00551101 222.594 0.143014 224.49 0.123849C232.684 13.1796 240.961 26.1731 249.183 39.2098C249.806 40.2686 250.568 41.2412 251.112 42.3479C248.258 42.3383 245.405 42.4054 242.555 42.3192C242.137 41.8449 241.877 41.2508 241.533 40.7237C235.723 31.2086 229.863 21.727 224.062 12.2022C223.249 10.9278 222.473 9.62463 221.673 8.34061C215.422 18.3972 209.148 28.4345 202.896 38.4863C202.06 39.7607 201.293 41.0831 200.461 42.3623C197.621 42.3288 194.777 42.4102 191.937 42.3192C200.921 28.3004 209.854 14.2481 218.782 0.190925V0.195716ZM256.629 0.104685C259.171 0.104685 261.713 0.0951024 264.256 0.114267C264.27 14.1953 264.246 28.2716 264.27 42.3527C261.723 42.3719 259.176 42.3671 256.633 42.3527C256.629 28.2716 256.629 14.1858 256.633 0.104685H256.629ZM273.477 0.104685C275.708 0.109476 277.939 0.0663557 280.17 0.133431C283.804 3.1135 287.578 5.91631 291.259 8.83888C300.564 16.0687 309.859 23.3224 319.15 30.5666C319.513 30.8684 319.88 31.1751 320.317 31.3763C320.326 20.9508 320.317 10.5254 320.321 0.0998935C322.543 0.109476 324.764 0.0903113 326.986 0.0998935C327.005 14.181 326.986 28.2621 327 42.3479C325.843 42.3527 324.685 42.3767 323.528 42.3479C323.04 42.3671 322.724 41.9215 322.357 41.6676L282.061 10.9805C281.42 10.4535 280.695 10.0271 280.146 9.38986L280.095 42.3479C277.906 42.3479 275.717 42.3815 273.533 42.3336C273.495 42.2186 273.426 41.9886 273.389 41.8736L273.472 0.104685H273.477Z" fill="white"/>
</svg>
