<svg width="32" height="32" viewBox="0 0 32 32" fill="none" xmlns="http://www.w3.org/2000/svg">
<path opacity="0.4" fill-rule="evenodd" clip-rule="evenodd" d="M7.88086 27.4515C7.88086 26.3315 8.78753 25.4248 9.90753 25.4248C11.0142 25.4248 11.9209 26.3315 11.9209 27.4515C11.9209 28.5581 11.0142 29.4648 9.90753 29.4648C8.78753 29.4648 7.88086 28.5581 7.88086 27.4515ZM22.8809 27.4515C22.8809 26.3315 23.7875 25.4248 24.9075 25.4248C26.0142 25.4248 26.9209 26.3315 26.9209 27.4515C26.9209 28.5581 26.0142 29.4648 24.9075 29.4648C23.7875 29.4648 22.8809 28.5581 22.8809 27.4515Z" fill="#00A7FE"/>
<path fill-rule="evenodd" clip-rule="evenodd" d="M26.9213 8.46545C27.7346 8.46545 28.268 8.74545 28.8013 9.35878C29.3346 9.97212 29.428 10.8521 29.308 11.6508L28.0413 20.3974C27.8013 22.0788 26.3613 23.3174 24.668 23.3174H10.1213C8.34798 23.3174 6.88131 21.9574 6.73465 20.1988L5.50798 5.66412L3.49465 5.31745C2.96132 5.22412 2.58798 4.70412 2.68132 4.17078C2.77465 3.62412 3.29465 3.26412 3.84131 3.34412L7.02131 3.82412C7.47465 3.90545 7.80798 4.27745 7.84798 4.73078L8.10132 7.71745C8.14131 8.14545 8.48798 8.46545 8.91465 8.46545H26.9213ZM18.8418 15.3975H22.5351C23.0951 15.3975 23.5351 14.9441 23.5351 14.3975C23.5351 13.8375 23.0951 13.3975 22.5351 13.3975H18.8418C18.2818 13.3975 17.8418 13.8375 17.8418 14.3975C17.8418 14.9441 18.2818 15.3975 18.8418 15.3975Z" fill="#00A7FE"/>
</svg>
