<svg width="22" height="22" viewBox="0 0 22 22" fill="none" xmlns="http://www.w3.org/2000/svg">
<path opacity="0.4" fill-rule="evenodd" clip-rule="evenodd" d="M5.41797 18.8729C5.41797 18.1029 6.0413 17.4796 6.8113 17.4796C7.57214 17.4796 8.19547 18.1029 8.19547 18.8729C8.19547 19.6337 7.57214 20.2571 6.8113 20.2571C6.0413 20.2571 5.41797 19.6337 5.41797 18.8729ZM15.7305 18.8729C15.7305 18.1029 16.3538 17.4796 17.1238 17.4796C17.8846 17.4796 18.508 18.1029 18.508 18.8729C18.508 19.6337 17.8846 20.2571 17.1238 20.2571C16.3538 20.2571 15.7305 19.6337 15.7305 18.8729Z" fill="white"/>
<path fill-rule="evenodd" clip-rule="evenodd" d="M18.5088 5.82C19.068 5.82 19.4347 6.0125 19.8013 6.43416C20.168 6.85583 20.2322 7.46083 20.1497 8.00991L19.2788 14.0232C19.1138 15.1792 18.1238 16.0307 16.9597 16.0307H6.95883C5.73966 16.0307 4.73133 15.0957 4.6305 13.8867L3.78716 3.89408L2.403 3.65575C2.03633 3.59158 1.77966 3.23408 1.84383 2.86741C1.908 2.49158 2.2655 2.24408 2.64133 2.29908L4.82758 2.62908C5.13925 2.685 5.36841 2.94075 5.39591 3.25241L5.57008 5.30575C5.59758 5.6 5.83591 5.82 6.12925 5.82H18.5088ZM12.9542 10.5858H15.4933C15.8783 10.5858 16.1808 10.2741 16.1808 9.89825C16.1808 9.51325 15.8783 9.21075 15.4933 9.21075H12.9542C12.5692 9.21075 12.2667 9.51325 12.2667 9.89825C12.2667 10.2741 12.5692 10.5858 12.9542 10.5858Z" fill="white"/>
</svg>
