<svg width="31" height="30" viewBox="0 0 31 30" fill="none" xmlns="http://www.w3.org/2000/svg">
<path d="M5.01953 4.05761L7.54927 4.49545L8.72048 18.4491C8.81413 19.5875 9.76764 20.4631 10.9097 20.4595H24.1774C25.2683 20.462 26.1939 19.6593 26.3483 18.5793L27.5025 10.6033C27.6314 9.71181 27.0137 8.88479 26.1222 8.75586C26.0443 8.74491 7.95548 8.73884 7.95548 8.73884" stroke="#00A7FE" stroke-width="1.5" stroke-linecap="round" stroke-linejoin="round"/>
<path opacity="0.4" d="M19.5549 14.4362H15.6289" stroke="#00A7FE" stroke-width="1.5" stroke-linecap="round" stroke-linejoin="round"/>
<path opacity="0.4" d="M10.3173 25.3065V25.4541M10.9158 25.3382C10.9158 25.6706 10.6461 25.9401 10.3137 25.9401C9.98124 25.9401 9.71191 25.6706 9.71191 25.3382C9.71191 25.0057 9.98124 24.7364 10.3137 24.7364C10.6461 24.7364 10.9158 25.0057 10.9158 25.3382Z" stroke="#00A7FE" stroke-width="1.5" stroke-linecap="round" stroke-linejoin="round"/>
<path opacity="0.4" d="M24.0977 25.3065V25.4541M24.6961 25.3382C24.6961 25.6706 24.4264 25.9401 24.0939 25.9401C23.7616 25.9401 23.4922 25.6706 23.4922 25.3382C23.4922 25.0057 23.7616 24.7364 24.0939 24.7364C24.4264 24.7364 24.6961 25.0057 24.6961 25.3382Z" stroke="#00A7FE" stroke-width="1.5" stroke-linecap="round" stroke-linejoin="round"/>
</svg>
