<svg width="16" height="17" viewBox="0 0 16 17" fill="none" xmlns="http://www.w3.org/2000/svg">
<path fill-rule="evenodd" clip-rule="evenodd" d="M0.5 3.91667C0.5 1.72899 0.523425 1 3.41667 1C6.30991 1 6.33333 1.72899 6.33333 3.91667C6.33333 6.10434 6.34256 6.83333 3.41667 6.83333C0.490773 6.83333 0.5 6.10434 0.5 3.91667Z" stroke="#D9F2FF" stroke-linecap="round" stroke-linejoin="round"/>
<path opacity="0.4" fill-rule="evenodd" clip-rule="evenodd" d="M9.66699 3.91667C9.66699 1.72899 9.69042 1 12.5837 1C15.4769 1 15.5003 1.72899 15.5003 3.91667C15.5003 6.10434 15.5096 6.83333 12.5837 6.83333C9.65776 6.83333 9.66699 6.10434 9.66699 3.91667Z" stroke="#D9F2FF" stroke-linecap="round" stroke-linejoin="round"/>
<path fill-rule="evenodd" clip-rule="evenodd" d="M0.5 13.0833C0.5 10.8957 0.523425 10.1667 3.41667 10.1667C6.30991 10.1667 6.33333 10.8957 6.33333 13.0833C6.33333 15.271 6.34256 16 3.41667 16C0.490773 16 0.5 15.271 0.5 13.0833Z" stroke="#D9F2FF" stroke-linecap="round" stroke-linejoin="round"/>
<path fill-rule="evenodd" clip-rule="evenodd" d="M9.66699 13.0833C9.66699 10.8957 9.69042 10.1667 12.5837 10.1667C15.4769 10.1667 15.5003 10.8957 15.5003 13.0833C15.5003 15.271 15.5096 16 12.5837 16C9.65776 16 9.66699 15.271 9.66699 13.0833Z" stroke="#D9F2FF" stroke-linecap="round" stroke-linejoin="round"/>
</svg>
