<svg width="25" height="25" viewBox="0 0 25 25" fill="none" xmlns="http://www.w3.org/2000/svg">
<path d="M20.54 10.219C20.54 9.80482 20.2042 9.46903 19.79 9.46903C19.3758 9.46903 19.04 9.80482 19.04 10.219H20.54ZM5.95999 10.219C5.95999 9.80482 5.62421 9.46903 5.20999 9.46903C4.79578 9.46903 4.45999 9.80482 4.45999 10.219H5.95999ZM15.0132 21.2071L14.8408 20.4772L15.0132 21.2071ZM9.98673 21.2071L10.1592 20.4772L9.98673 21.2071ZM15.3284 5.51423L14.7962 6.04267L15.3284 5.51423ZM20.9678 12.2582C21.2596 12.5521 21.7345 12.5538 22.0284 12.2619C22.3224 11.9701 22.3241 11.4952 22.0322 11.2013L20.9678 12.2582ZM9.67157 5.51423L10.2038 6.04267L9.67157 5.51423ZM2.96779 11.2013C2.67594 11.4952 2.67762 11.9701 2.97155 12.2619C3.26548 12.5538 3.74035 12.5521 4.03221 12.2582L2.96779 11.2013ZM10.2184 18.8203L9.4813 18.6819L9.4813 18.6819L10.2184 18.8203ZM10.2378 18.7173L10.9749 18.8556L10.9749 18.8556L10.2378 18.7173ZM14.7622 18.7173L14.0251 18.8556V18.8556L14.7622 18.7173ZM14.7816 18.8203L15.5187 18.6819V18.6819L14.7816 18.8203ZM14.4918 21.0519L13.8146 20.7296V20.7296L14.4918 21.0519ZM13.6978 20.975C13.5198 21.349 13.6787 21.7965 14.0527 21.9745C14.4267 22.1525 14.8742 21.9936 15.0522 21.6196L13.6978 20.975ZM10.5082 21.0519L9.831 21.3742L9.831 21.3742L10.5082 21.0519ZM9.94778 21.6196C10.1258 21.9936 10.5733 22.1525 10.9473 21.9745C11.3213 21.7965 11.4802 21.349 11.3022 20.975L9.94778 21.6196ZM11.8611 16.9426L11.6605 16.2199H11.6605L11.8611 16.9426ZM13.1389 16.9426L13.3395 16.2199H13.3395L13.1389 16.9426ZM19.04 10.219V15.1374H20.54V10.219H19.04ZM5.95999 15.1374V10.219H4.45999V15.1374H5.95999ZM14.8408 20.4772C13.3011 20.8409 11.6988 20.8409 10.1592 20.4772L9.8143 21.937C11.5808 22.3543 13.4192 22.3543 15.1857 21.937L14.8408 20.4772ZM10.1592 20.4772C7.7026 19.8969 5.95999 17.6877 5.95999 15.1374H4.45999C4.45999 18.3765 6.67421 21.1952 9.8143 21.937L10.1592 20.4772ZM15.1857 21.937C18.3258 21.1952 20.54 18.3765 20.54 15.1374H19.04C19.04 17.6877 17.2974 19.8969 14.8408 20.4772L15.1857 21.937ZM14.7962 6.04267L20.9678 12.2582L22.0322 11.2013L15.8606 4.98578L14.7962 6.04267ZM9.13937 4.98578L2.96779 11.2013L4.03221 12.2582L10.2038 6.04267L9.13937 4.98578ZM15.8606 4.98578C15.2089 4.32945 14.6681 3.78246 14.1818 3.40885C13.6785 3.02211 13.1458 2.75 12.5 2.75V4.25C12.6827 4.25 12.8974 4.31359 13.2679 4.59826C13.6555 4.89606 14.1146 5.35618 14.7962 6.04267L15.8606 4.98578ZM10.2038 6.04267C10.8854 5.35618 11.3445 4.89606 11.7321 4.59826C12.1026 4.31359 12.3173 4.25 12.5 4.25V2.75C11.8542 2.75 11.3215 3.02211 10.8182 3.40885C10.3319 3.78246 9.79106 4.32945 9.13937 4.98578L10.2038 6.04267ZM10.9555 18.9587L10.9749 18.8556L9.50064 18.5789L9.4813 18.6819L10.9555 18.9587ZM14.0251 18.8556L14.0445 18.9587L15.5187 18.6819L15.4994 18.5789L14.0251 18.8556ZM13.8146 20.7296L13.6978 20.975L15.0522 21.6196L15.169 21.3742L13.8146 20.7296ZM9.831 21.3742L9.94778 21.6196L11.3022 20.975L11.1854 20.7296L9.831 21.3742ZM14.0445 18.9587C14.1571 19.5588 14.0764 20.1793 13.8146 20.7296L15.169 21.3742C15.5675 20.5369 15.6899 19.5937 15.5187 18.6819L14.0445 18.9587ZM9.4813 18.6819C9.31015 19.5937 9.43254 20.5369 9.831 21.3742L11.1854 20.7296C10.9236 20.1793 10.8429 19.5588 10.9556 18.9587L9.4813 18.6819ZM12.0616 17.6652C12.3485 17.5856 12.6515 17.5856 12.9384 17.6652L13.3395 16.2199C12.7901 16.0674 12.2099 16.0674 11.6605 16.2199L12.0616 17.6652ZM15.4994 18.5789C15.2865 17.4449 14.4504 16.5281 13.3395 16.2199L12.9384 17.6652C13.4935 17.8193 13.917 18.2794 14.0251 18.8556L15.4994 18.5789ZM10.9749 18.8556C11.083 18.2794 11.5065 17.8193 12.0616 17.6652L11.6605 16.2199C10.5496 16.5281 9.71349 17.4449 9.50064 18.5789L10.9749 18.8556Z" fill="white"/>
</svg>
