<svg width="57" height="57" viewBox="0 0 57 57" fill="none" xmlns="http://www.w3.org/2000/svg">
<path d="M47.3654 23.3233C47.3654 22.3614 46.5857 21.5817 45.6238 21.5817C44.662 21.5817 43.8822 22.3614 43.8822 23.3233H47.3654ZM13.5092 23.3233C13.5092 22.3614 12.7295 21.5817 11.7676 21.5817C10.8058 21.5817 10.0261 22.3614 10.0261 23.3233H13.5092ZM34.5318 48.8387L34.1314 47.1437L34.5318 48.8387ZM22.8597 48.8387L23.2601 47.1437L22.8597 48.8387ZM35.2636 12.3982L34.0278 13.6253V13.6253L35.2636 12.3982ZM48.3588 28.0583C49.0365 28.7408 50.1392 28.7447 50.8217 28.067C51.5043 27.3893 51.5082 26.2866 50.8305 25.6041L48.3588 28.0583ZM22.1279 12.3982L23.3637 13.6253H23.3637L22.1279 12.3982ZM6.56104 25.6041C5.88333 26.2866 5.88724 27.3893 6.56977 28.067C7.2523 28.7447 8.355 28.7408 9.03271 28.0583L6.56104 25.6041ZM23.3977 43.2962L21.686 42.9749H21.686L23.3977 43.2962ZM23.4426 43.057L25.1543 43.3783V43.3783L23.4426 43.057ZM33.9489 43.057L32.2372 43.3783L32.2372 43.3783L33.9489 43.057ZM33.9938 43.2962L35.7055 42.975L35.7055 42.9749L33.9938 43.2962ZM33.3209 48.4782L31.7483 47.7298L31.7483 47.7298L33.3209 48.4782ZM31.4771 48.2997C31.0638 49.1682 31.4328 50.2073 32.3013 50.6206C33.1698 51.0339 34.2089 50.6649 34.6223 49.7964L31.4771 48.2997ZM24.0707 48.4782L22.4981 49.2266L22.4981 49.2266L24.0707 48.4782ZM22.7692 49.7964C23.1826 50.6649 24.2217 51.0339 25.0902 50.6206C25.9587 50.2073 26.3277 49.1682 25.9144 48.2996L22.7692 49.7964ZM27.2121 38.9359L26.7464 37.2578L27.2121 38.9359ZM30.1794 38.9359L30.6451 37.2578L30.1794 38.9359ZM43.8822 23.3233V34.7441H47.3654V23.3233H43.8822ZM13.5092 34.7441V23.3233H10.0261V34.7441H13.5092ZM34.1314 47.1437C30.5561 47.9883 26.8354 47.9883 23.2601 47.1437L22.4593 50.5336C26.5612 51.5026 30.8303 51.5026 34.9322 50.5336L34.1314 47.1437ZM23.2601 47.1437C17.5557 45.7962 13.5092 40.6663 13.5092 34.7441H10.0261C10.0261 42.2657 15.1677 48.811 22.4593 50.5336L23.2601 47.1437ZM34.9322 50.5336C42.2238 48.811 47.3654 42.2657 47.3654 34.7441H43.8822C43.8822 40.6663 39.8357 45.7962 34.1314 47.1437L34.9322 50.5336ZM34.0278 13.6253L48.3588 28.0583L50.8305 25.6041L36.4995 11.1711L34.0278 13.6253ZM20.892 11.1711L6.56104 25.6041L9.03271 28.0583L23.3637 13.6253L20.892 11.1711ZM36.4995 11.1711C34.9862 9.64708 33.7302 8.37691 32.6012 7.50935C31.4325 6.61131 30.1953 5.97944 28.6958 5.97944V9.46258C29.1199 9.46258 29.6186 9.61024 30.4789 10.2713C31.3788 10.9628 32.445 12.0312 34.0278 13.6253L36.4995 11.1711ZM23.3637 13.6253C24.9465 12.0312 26.0127 10.9628 26.9126 10.2713C27.7729 9.61024 28.2716 9.46258 28.6958 9.46258V5.97944C27.1962 5.97944 25.959 6.61131 24.7903 7.50935C23.6613 8.37691 22.4053 9.64708 20.892 11.1711L23.3637 13.6253ZM25.1094 43.6175L25.1543 43.3783L21.7309 42.7357L21.686 42.9749L25.1094 43.6175ZM32.2372 43.3783L32.2821 43.6175L35.7055 42.9749L35.6606 42.7357L32.2372 43.3783ZM31.7483 47.7298L31.4771 48.2997L34.6223 49.7964L34.8934 49.2266L31.7483 47.7298ZM22.4981 49.2266L22.7692 49.7964L25.9144 48.2996L25.6432 47.7298L22.4981 49.2266ZM32.2821 43.6175C32.5437 45.0111 32.3564 46.452 31.7483 47.7298L34.8934 49.2266C35.8187 47.2823 36.1029 45.0922 35.7055 42.975L32.2821 43.6175ZM21.686 42.9749C21.2886 45.0922 21.5728 47.2823 22.4981 49.2266L25.6432 47.7298C25.0351 46.452 24.8478 45.0111 25.1094 43.6175L21.686 42.9749ZM27.6777 40.6141C28.3441 40.4292 29.0474 40.4292 29.7138 40.6141L30.6451 37.2578C29.3694 36.9038 28.0221 36.9038 26.7464 37.2578L27.6777 40.6141ZM35.6606 42.7357C35.1663 40.1025 33.2248 37.9735 30.6451 37.2578L29.7138 40.6141C31.0028 40.9718 31.9861 42.0403 32.2372 43.3783L35.6606 42.7357ZM25.1543 43.3783C25.4054 42.0403 26.3887 40.9718 27.6777 40.6141L26.7464 37.2578C24.1667 37.9735 22.2252 40.1025 21.7309 42.7357L25.1543 43.3783Z" fill="white"/>
</svg>
