<svg width="34" height="34" viewBox="0 0 34 34" fill="none" xmlns="http://www.w3.org/2000/svg">
<path d="M6.09421 9.2089L14.2829 15.0592C15.9079 16.2202 18.0908 16.2202 19.7158 15.0592L27.9045 9.2089M4.08699 21.4643C3.35902 18.5326 3.35902 15.4674 4.08699 12.5357C5.03992 8.6981 8.08287 5.73089 11.9426 4.87563L12.5856 4.73315C15.4929 4.08895 18.5058 4.08895 21.4131 4.73315L22.0561 4.87563C25.9158 5.73089 28.9588 8.6981 29.9117 12.5357C30.6397 15.4674 30.6397 18.5326 29.9117 21.4643C28.9588 25.3019 25.9158 28.2691 22.0561 29.1244L21.4131 29.2668C18.5058 29.911 15.4929 29.911 12.5856 29.2668L11.9426 29.1244C8.08287 28.2691 5.03992 25.3019 4.08699 21.4643Z" stroke="#363853" stroke-width="2.125" stroke-linecap="round"/>
</svg>
