<svg width="22" height="22" viewBox="0 0 22 22" fill="none" xmlns="http://www.w3.org/2000/svg">
<path d="M7.33301 8.25L10.9997 8.25" stroke="white" stroke-width="1.7" stroke-linecap="round"/>
<path d="M2.64527 8.11135C3.26187 5.62818 5.23084 3.70823 7.72834 3.15482L8.14439 3.06263C10.0255 2.64579 11.9751 2.64579 13.8563 3.06263L14.2723 3.15482C16.7698 3.70823 18.7388 5.62818 19.3554 8.11136C19.8264 10.0083 19.8264 11.9917 19.3554 13.8886C18.7388 16.3718 16.7698 18.2918 14.2723 18.8452L13.8563 18.9374C11.9751 19.3542 10.0255 19.3542 8.14439 18.9374L7.72834 18.8452C5.23084 18.2918 3.26187 16.3718 2.64527 13.8886C2.17423 11.9917 2.17423 10.0083 2.64527 8.11135Z" fill="white" fill-opacity="0.15"/>
<path d="M2.64527 13.8886L3.47022 13.6838L2.64527 13.8886ZM2.64527 8.11135L3.47022 8.3162L2.64527 8.11135ZM19.3554 8.11136L20.1803 7.90651L19.3554 8.11136ZM19.3554 13.8886L18.5304 13.6838L19.3554 13.8886ZM13.8563 18.9374L13.6724 18.1075L13.6724 18.1075L13.8563 18.9374ZM8.14439 18.9374L8.32827 18.1075L8.14439 18.9374ZM8.14439 3.06263L8.32827 3.8925L8.14439 3.06263ZM13.8563 3.06263L14.0402 2.23276L13.8563 3.06263ZM7.72834 18.8452L7.54445 19.6751L7.72834 18.8452ZM14.2723 18.8452L14.4562 19.6751L14.2723 18.8452ZM14.2723 3.15482L14.0884 3.98469L14.2723 3.15482ZM7.72834 3.15482L7.54445 2.32495L7.54445 2.32495L7.72834 3.15482ZM17.1359 13.295L16.9834 14.1312H16.9834L17.1359 13.295ZM17.0822 13.2852L17.2346 12.449L17.2346 12.449L17.0822 13.2852ZM17.0822 8.71478L17.2346 9.55099L17.2346 9.55099L17.0822 8.71478ZM17.1359 8.70498L16.9834 7.86877L16.9834 7.86877L17.1359 8.70498ZM19.1852 9.76224C19.6153 9.95037 20.1165 9.75422 20.3046 9.32413C20.4928 8.89403 20.2966 8.39286 19.8665 8.20473L19.1852 9.76224ZM19.8665 13.7953C20.2966 13.6071 20.4928 13.106 20.3046 12.6759C20.1165 12.2458 19.6153 12.0496 19.1852 12.2378L19.8665 13.7953ZM15.197 11.5759L14.3797 11.8093L15.197 11.5759ZM15.197 10.4241L16.0143 10.6576V10.6576L15.197 10.4241ZM7.91222 3.98469L8.32827 3.8925L7.9605 2.23276L7.54445 2.32495L7.91222 3.98469ZM13.6724 3.8925L14.0884 3.98469L14.4562 2.32495L14.0402 2.23276L13.6724 3.8925ZM14.0884 18.0153L13.6724 18.1075L14.0402 19.7672L14.4562 19.6751L14.0884 18.0153ZM8.32827 18.1075L7.91222 18.0153L7.54445 19.6751L7.9605 19.7672L8.32827 18.1075ZM3.47022 13.6838C3.03258 11.9214 3.03258 10.0786 3.47022 8.3162L1.82032 7.90651C1.31588 9.93798 1.31588 12.062 1.82032 14.0935L3.47022 13.6838ZM18.5304 8.3162C18.9681 10.0786 18.9681 11.9214 18.5304 13.6838L20.1803 14.0935C20.6848 12.062 20.6848 9.93798 20.1803 7.90651L18.5304 8.3162ZM13.6724 18.1075C11.9123 18.4975 10.0883 18.4975 8.32827 18.1075L7.9605 19.7672C9.96278 20.2109 12.0379 20.2109 14.0402 19.7672L13.6724 18.1075ZM8.32827 3.8925C10.0883 3.5025 11.9123 3.5025 13.6724 3.8925L14.0402 2.23276C12.0379 1.78908 9.96278 1.78908 7.9605 2.23276L8.32827 3.8925ZM7.91222 18.0153C5.72979 17.5317 4.00909 15.8539 3.47022 13.6838L1.82032 14.0935C2.51465 16.8897 4.73188 19.0518 7.54445 19.6751L7.91222 18.0153ZM14.4562 19.6751C17.2688 19.0518 19.486 16.8897 20.1803 14.0935L18.5304 13.6838C17.9916 15.8539 16.2709 17.5317 14.0884 18.0153L14.4562 19.6751ZM14.0884 3.98469C16.2709 4.46828 17.9916 6.14607 18.5304 8.3162L20.1803 7.90651C19.486 5.1103 17.2688 2.94817 14.4562 2.32495L14.0884 3.98469ZM7.54445 2.32495C4.73188 2.94817 2.51465 5.1103 1.82032 7.90651L3.47022 8.3162C4.00909 6.14607 5.72979 4.46828 7.91222 3.98469L7.54445 2.32495ZM17.2884 12.4588L17.2346 12.449L16.9297 14.1214L16.9834 14.1312L17.2884 12.4588ZM17.2346 9.55099L17.2884 9.5412L16.9834 7.86877L16.9297 7.87857L17.2346 9.55099ZM17.2884 9.5412C17.9286 9.42447 18.589 9.50143 19.1852 9.76224L19.8665 8.20473C18.9603 7.80833 17.9565 7.69135 16.9834 7.86877L17.2884 9.5412ZM16.9834 14.1312C17.9565 14.3086 18.9603 14.1917 19.8665 13.7953L19.1852 12.2378C18.589 12.4986 17.9286 12.5755 17.2884 12.4588L16.9834 14.1312ZM16.0143 11.3424C15.9504 11.1186 15.9504 10.8814 16.0143 10.6576L14.3797 10.1907C14.2286 10.7196 14.2286 11.2804 14.3797 11.8093L16.0143 11.3424ZM16.9297 7.87857C15.709 8.10115 14.7205 8.99751 14.3797 10.1907L16.0143 10.6576C16.1774 10.0864 16.6506 9.65749 17.2346 9.55099L16.9297 7.87857ZM17.2346 12.449C16.6506 12.3425 16.1774 11.9136 16.0143 11.3424L14.3797 11.8093C14.7205 13.0025 15.709 13.8989 16.9297 14.1214L17.2346 12.449Z" fill="white"/>
</svg>
