<svg width="22" height="22" viewBox="0 0 22 22" fill="none" xmlns="http://www.w3.org/2000/svg">
<path d="M3.38034 8.31278C3.95442 5.86538 5.86538 3.95442 8.31279 3.38034C10.0803 2.96574 11.9197 2.96574 13.6872 3.38034C16.1346 3.95442 18.0456 5.86538 18.6197 8.31279C19.0343 10.0803 19.0343 11.9197 18.6197 13.6872C18.0456 16.1346 16.1346 18.0456 13.6872 18.6197C11.9197 19.0343 10.0803 19.0343 8.31279 18.6197C5.86538 18.0456 3.95442 16.1346 3.38034 13.6872C2.96574 11.9197 2.96574 10.0803 3.38034 8.31278Z" fill="white" fill-opacity="0.15" stroke="white" stroke-width="1.5"/>
<path d="M12.9816 9.96477C13.7006 10.4249 13.7006 11.5751 12.9816 12.0352L10.5551 13.5881C9.83619 14.0482 8.9375 13.473 8.9375 12.5528L8.9375 9.44716C8.9375 8.52696 9.83619 7.95183 10.5551 8.41193L12.9816 9.96477Z" stroke="white" stroke-width="1.5"/>
</svg>
