<svg width="50" height="51" viewBox="0 0 50 51" fill="none" xmlns="http://www.w3.org/2000/svg">
<path opacity="0.4" d="M45.8337 25.7604C45.8337 37.2373 36.4828 46.5837 25.0003 46.5837C13.5179 46.5837 4.16699 37.2373 4.16699 25.7604C4.16699 14.2634 13.5179 4.91699 25.0003 4.91699C36.4828 4.91699 45.8337 14.2634 45.8337 25.7604Z" fill="white"/>
<path d="M33.3333 25.7605C33.3333 26.287 33.1676 26.8155 32.8362 27.2388C32.774 27.3218 32.484 27.6641 32.2562 27.8868L32.1319 28.0083C30.3918 29.8532 26.0624 32.6276 23.8666 33.5166C23.8666 33.5369 22.5616 34.0654 21.9401 34.0837H21.8572C20.9044 34.0837 20.0136 33.5592 19.5579 32.7086C19.3093 32.2408 19.0814 30.884 19.0607 30.8658C18.8743 29.6487 18.75 27.7856 18.75 25.7402C18.75 23.5956 18.8743 21.6495 19.1022 20.4547C19.1022 20.4344 19.33 19.3408 19.475 18.9763C19.7029 18.4518 20.1172 18.0043 20.6351 17.7208C21.0494 17.5203 21.4844 17.417 21.9401 17.417C22.4165 17.4393 23.3073 17.741 23.6594 17.8828C25.9795 18.7738 30.4125 21.69 32.1111 23.4721C32.4012 23.7556 32.7119 24.1019 32.7947 24.1809C33.1469 24.6264 33.3333 25.1732 33.3333 25.7605Z" fill="white"/>
</svg>
