<svg width="18" height="18" viewBox="0 0 18 18" fill="none" xmlns="http://www.w3.org/2000/svg">
<path fill-rule="evenodd" clip-rule="evenodd" d="M6.02975 0.3437C7.9834 -0.114566 10.0166 -0.114567 11.9703 0.343698C14.7916 1.00549 16.9945 3.20842 17.6563 6.02975C18.1146 7.9834 18.1146 10.0166 17.6563 11.9703C16.9945 14.7916 14.7916 16.9945 11.9703 17.6563C10.0166 18.1146 7.98341 18.1146 6.02975 17.6563C3.20842 16.9945 1.0055 14.7916 0.3437 11.9703C-0.114566 10.0166 -0.114567 7.98341 0.343699 6.02975C1.00549 3.20841 3.20841 1.00549 6.02975 0.3437ZM8.31614 10.639V9.81375H9.48419C10.0566 9.81375 10.5291 9.70296 10.9018 9.48138C11.2812 9.25979 11.5574 8.96944 11.7304 8.61032C11.9102 8.24355 12 7.84241 12 7.40688C12 6.95606 11.9035 6.54728 11.7105 6.18052C11.5241 5.81375 11.2413 5.52722 10.8619 5.32092C10.4825 5.10697 10.0233 5 9.48419 5H6.91847V8.57593H6V9.81375H6.91847V10.639H6V11.8997H6.91847V13H8.31614V11.8997H10.0932V10.639H8.31614ZM9.45424 8.57593H8.31614V6.23782H9.45424C9.8203 6.23782 10.0965 6.34479 10.2829 6.55874C10.4692 6.76504 10.5624 7.04776 10.5624 7.40688C10.5624 7.766 10.4692 8.05253 10.2829 8.26648C10.0965 8.47278 9.8203 8.57593 9.45424 8.57593Z" fill="white"/>
</svg>
