<svg width="13" height="18" viewBox="0 0 13 18" fill="none" xmlns="http://www.w3.org/2000/svg">
<path fill-rule="evenodd" clip-rule="evenodd" d="M8.6843 4.81398C8.85179 4.97029 8.86084 5.23279 8.70452 5.40028L6.28471 7.99293C6.20795 8.07517 6.10108 8.12271 5.9886 8.12465C5.87612 8.12659 5.76767 8.08276 5.68813 8.00321L4.30538 6.62046C4.14338 6.45846 4.14338 6.19581 4.30538 6.03381C4.46738 5.87181 4.73003 5.87181 4.89203 6.03381L5.97116 7.11295L8.098 4.83419C8.25432 4.66671 8.51682 4.65766 8.6843 4.81398ZM11.0071 11.5397C11.8596 10.7938 12.4818 9.78826 12.7526 8.63667C12.8395 8.26717 12.9035 7.89369 12.9446 7.51832C12.9816 7.18105 13 6.84226 13 6.50347C12.9999 5.78822 12.9175 5.07297 12.7526 4.37205C12.2685 2.31363 10.6618 0.721897 8.62359 0.245083C7.22674 -0.0816945 5.77326 -0.0816943 4.37641 0.245083C2.33822 0.721897 0.731526 2.31362 0.247386 4.37205C0.0044453 5.40496 -0.0595641 6.469 0.0553585 7.51832C0.0964696 7.89369 0.160479 8.26718 0.247386 8.63668C0.518236 9.78826 1.14042 10.7938 1.99294 11.5397L1.99261 11.541L1.07295 15.2625C0.610156 17.1352 2.53944 18.575 4.16052 17.7733L5.89338 16.9163C6.27499 16.7276 6.72501 16.7276 7.10662 16.9163L8.83948 17.7733C10.4606 18.575 12.3898 17.1352 11.927 15.2625L11.0074 11.5411L11.0071 11.5397ZM8.81338 12.7157C8.75055 12.7328 8.68728 12.7487 8.62359 12.7636C7.22674 13.0904 5.77326 13.0904 4.37641 12.7636C4.29184 12.7439 4.20801 12.7222 4.12497 12.6986C3.7979 12.6057 3.48322 12.4839 3.18389 12.3358L2.37624 15.604C2.22159 16.2298 2.8878 16.8665 3.57832 16.525L5.31118 15.668C6.0608 15.2973 6.93919 15.2973 7.68882 15.668L9.42168 16.525C10.1122 16.8665 10.7784 16.2298 10.6238 15.604L9.81611 12.3358C9.49802 12.4932 9.16259 12.6209 8.81338 12.7157Z" fill="#00C65C"/>
</svg>
