<svg width="24" height="24" viewBox="0 0 24 24" fill="none" xmlns="http://www.w3.org/2000/svg">
<rect x="0.5" y="0.5" width="23" height="23" rx="9.5" fill="#2BABEE" fill-opacity="0.15"/>
<rect x="0.5" y="0.5" width="23" height="23" rx="9.5" stroke="#2BABEE"/>
<path d="M8.07896 11.537C10.5197 10.5962 12.1469 9.97598 12.9605 9.67634C15.2862 8.82067 15.7689 8.67206 16.0841 8.66704C16.1534 8.66604 16.3078 8.68121 16.4085 8.75331C16.4922 8.81408 16.5157 8.89625 16.5275 8.95389C16.538 9.01153 16.5524 9.14289 16.5406 9.24544C16.415 10.4167 15.8696 13.2591 15.5923 14.571C15.4759 15.1261 15.2443 15.3122 15.0207 15.3304C14.5341 15.3699 14.1652 15.0461 13.6943 14.773C12.9579 14.3456 12.542 14.0796 11.8265 13.6626C10.9998 13.1807 11.5361 12.9158 12.007 12.4829C12.1299 12.3696 14.2725 10.6457 14.313 10.4893C14.3183 10.4697 14.3235 10.3968 14.2738 10.3584C14.2254 10.3198 14.1535 10.333 14.1011 10.3435C14.0266 10.3583 12.8507 11.0467 10.5695 12.4086C10.2359 12.6116 9.93375 12.7106 9.66168 12.7054C9.36345 12.6997 8.78792 12.5558 8.36019 12.4329C7.83698 12.2821 7.41972 12.2024 7.45634 11.9462C7.47465 11.8129 7.68263 11.6764 8.07896 11.537Z" fill="white"/>
</svg>
