<svg width="47" height="47" viewBox="0 0 47 47" fill="none" xmlns="http://www.w3.org/2000/svg">
<path d="M2.39109 16.3675C3.96415 9.6613 9.20037 4.42508 15.9065 2.85203C20.7496 1.71599 25.7899 1.71599 30.633 2.85203C37.3392 4.42508 42.5754 9.6613 44.1485 16.3675C45.2845 21.2106 45.2845 26.2509 44.1485 31.094C42.5754 37.8001 37.3392 43.0363 30.633 44.6094C25.7899 45.7454 20.7496 45.7454 15.9065 44.6094C9.20037 43.0363 3.96415 37.8001 2.39109 31.094C1.25505 26.2509 1.25505 21.2106 2.39109 16.3675Z" fill="#2BABEE" fill-opacity="0.15" stroke="#2BABEE" stroke-width="2.71634"/>
<path d="M13.436 22.724C18.74 20.6797 22.276 19.3318 24.044 18.6807C29.0978 16.8213 30.1467 16.4983 30.8317 16.4874C30.9824 16.4852 31.3178 16.5182 31.5366 16.6749C31.7186 16.8069 31.7697 16.9855 31.7953 17.1108C31.8181 17.236 31.8493 17.5215 31.8237 17.7443C31.5509 20.2896 30.3656 26.4662 29.763 29.3171C29.51 30.5234 29.0069 30.9278 28.5208 30.9673C27.4634 31.0533 26.6619 30.3496 25.6386 29.7562C24.0383 28.8274 23.1344 28.2494 21.5796 27.3432C19.7832 26.2959 20.9486 25.7202 21.9718 24.7796C22.239 24.5333 26.8949 20.7871 26.9831 20.4473C26.9944 20.4048 27.0058 20.2463 26.8978 20.1628C26.7926 20.0791 26.6363 20.1077 26.5226 20.1304C26.3606 20.1626 23.8052 21.6586 18.848 24.6181C18.1232 25.0592 17.4666 25.2743 16.8753 25.263C16.2273 25.2506 14.9766 24.938 14.0471 24.6709C12.9101 24.3432 12.0034 24.1699 12.083 23.6133C12.1228 23.3236 12.5747 23.027 13.436 22.724Z" fill="#2BABEE"/>
</svg>
