<svg width="108" height="108" viewBox="0 0 108 108" fill="none" xmlns="http://www.w3.org/2000/svg">
<path d="M5.45506 36.6735C9.10784 21.1011 21.2669 8.94212 36.8392 5.28935C48.0854 2.65136 59.7894 2.65135 71.0356 5.28934C86.6079 8.94212 98.767 21.1011 102.42 36.6735C105.058 47.9197 105.058 59.6237 102.42 70.8699C98.767 86.4422 86.6079 98.6012 71.0356 102.254C59.7894 104.892 48.0854 104.892 36.8392 102.254C21.2669 98.6012 9.10784 86.4422 5.45506 70.8699C2.81706 59.6237 2.81706 47.9197 5.45506 36.6735Z" fill="#2BABEE" fill-opacity="0.15" stroke="#2BABEE" stroke-width="6.3076"/>
<path d="M31.1023 51.4339C43.4187 46.6869 51.6296 43.5571 55.7351 42.045C67.4706 37.7273 69.9062 36.9774 71.4969 36.952C71.8467 36.947 72.6256 37.0235 73.1338 37.3874C73.5562 37.694 73.675 38.1086 73.7344 38.3995C73.7872 38.6903 73.8599 39.3532 73.8004 39.8707C73.1668 45.7811 70.4144 60.1237 69.0151 66.7437C68.4277 69.5448 67.2594 70.484 66.1308 70.5757C63.6754 70.7754 61.8141 69.1413 59.4379 67.7634C55.7219 65.6066 53.623 64.2645 50.0125 62.1602C45.8411 59.7283 48.5472 58.3915 50.9234 56.2072C51.5438 55.6354 62.3553 46.9363 62.5599 46.1472C62.5863 46.0485 62.6127 45.6806 62.3619 45.4867C62.1177 45.2922 61.7547 45.3588 61.4907 45.4114C61.1144 45.4861 55.1807 48.9599 43.6695 55.8322C41.9864 56.8566 40.4617 57.356 39.0888 57.3297C37.5839 57.3011 34.6798 56.5751 32.5214 55.9549C29.8812 55.1939 27.7757 54.7915 27.9605 53.499C28.0529 52.8262 29.1024 52.1377 31.1023 51.4339Z" fill="#2BABEE"/>
</svg>
