<svg width="24" height="24" viewBox="0 0 24 24" fill="none" xmlns="http://www.w3.org/2000/svg">
<rect x="0.5" y="0.5" width="23" height="23" rx="9.5" fill="#00E676" fill-opacity="0.15"/>
<rect x="0.5" y="0.5" width="23" height="23" rx="9.5" stroke="#00E676"/>
<path fill-rule="evenodd" clip-rule="evenodd" d="M9.50112 15.7943C10.2428 16.2837 11.1119 16.5448 12.0005 16.545C12.0002 16.545 11.9999 16.545 11.9996 16.545H12.001C12.0008 16.545 12.0007 16.545 12.0005 16.545C14.5073 16.5445 16.545 14.5059 16.545 11.9996C16.545 9.49287 14.506 7.4541 11.9996 7.4541C9.49316 7.4541 7.45411 9.49287 7.45411 11.9996C7.45265 12.9571 7.75591 13.8902 8.31999 14.664L7.75344 16.3526L9.50112 15.7943ZM10.4555 9.44682C10.5891 9.45535 10.6587 9.46303 10.744 9.67424L10.7446 9.67083C10.7723 9.73777 10.8101 9.82959 10.8517 9.93049C10.9743 10.228 11.1294 10.6045 11.1534 10.6544C11.1855 10.7212 11.2176 10.815 11.1721 10.9003C11.1319 10.9859 11.0964 11.0267 11.0362 11.096C11.0326 11.1001 11.0289 11.1043 11.0252 11.1087C10.997 11.141 10.9695 11.1701 10.942 11.1991C10.904 11.2393 10.8661 11.2793 10.8273 11.3275C10.8262 11.3289 10.825 11.3302 10.8239 11.3315C10.7634 11.4026 10.6977 11.4798 10.7739 11.611C10.8515 11.7417 11.1187 12.1778 11.5115 12.5274C11.9773 12.9421 12.3624 13.0978 12.5361 13.168C12.5516 13.1743 12.5655 13.1799 12.5775 13.185C12.687 13.2304 12.818 13.2191 12.8982 13.1338C12.9867 13.0386 13.0938 12.8881 13.2045 12.7324C13.2208 12.7095 13.2372 12.6865 13.2535 12.6636C13.3445 12.5354 13.4593 12.5192 13.5796 12.5647C13.7027 12.6076 14.3519 12.9254 14.4856 12.9951C14.5198 13.0129 14.551 13.028 14.579 13.0416C14.6605 13.0811 14.7153 13.1077 14.7394 13.15C14.7718 13.2068 14.7718 13.4712 14.6621 13.7811C14.5524 14.0909 14.1169 14.3476 13.7695 14.4224C13.5315 14.4733 13.2217 14.5133 12.1767 14.0804C10.9497 13.5725 10.1238 12.3838 9.94523 12.1268C9.92933 12.1039 9.91856 12.0884 9.91309 12.0814C9.9114 12.0791 9.90943 12.0764 9.90718 12.0734C9.82394 11.9599 9.37298 11.3454 9.37298 10.7104C9.37298 10.077 9.68568 9.759 9.82606 9.61623C9.83021 9.61201 9.83421 9.60794 9.83805 9.60402C9.94777 9.49231 10.1297 9.44114 10.3031 9.44114L10.4555 9.44682Z" fill="#FEFEFE"/>
</svg>
