<svg width="47" height="47" viewBox="0 0 47 47" fill="none" xmlns="http://www.w3.org/2000/svg">
<path d="M2.85203 16.3675C4.42508 9.6613 9.66131 4.42508 16.3675 2.85203C21.2106 1.71599 26.2509 1.71599 31.094 2.85203C37.8001 4.42508 43.0364 9.6613 44.6094 16.3675C45.7454 21.2106 45.7454 26.2509 44.6094 31.094C43.0363 37.8001 37.8001 43.0363 31.094 44.6094C26.2509 45.7454 21.2106 45.7454 16.3675 44.6094C9.66131 43.0363 4.42508 37.8001 2.85203 31.094C1.71599 26.2509 1.71599 21.2106 2.85203 16.3675Z" fill="#00E676" fill-opacity="0.15" stroke="#00E676" stroke-width="2.71634"/>
<path fill-rule="evenodd" clip-rule="evenodd" d="M18.2999 31.9768C19.9117 33.0405 21.8002 33.6077 23.7312 33.6082C23.7305 33.6082 23.7299 33.6082 23.7292 33.6082H23.7323C23.7319 33.6082 23.7316 33.6082 23.7312 33.6082C29.1787 33.6071 33.6068 29.1771 33.6068 23.7306C33.6068 18.2834 29.1757 13.853 23.7292 13.853C18.2826 13.853 13.8516 18.2834 13.8516 23.7306C13.8484 25.8114 14.5074 27.8392 15.7332 29.5207L14.502 33.19L18.2999 31.9768ZM20.3718 18.1834C20.6622 18.2019 20.8135 18.2186 20.9988 18.6776L21.0001 18.6701C21.0603 18.8156 21.1425 19.0152 21.2328 19.2344C21.4992 19.881 21.8363 20.6991 21.8884 20.8075C21.9582 20.9527 22.028 21.1565 21.9292 21.3419C21.8417 21.5279 21.7647 21.6165 21.6337 21.7671C21.6259 21.7761 21.618 21.7852 21.6098 21.7947C21.5487 21.865 21.4888 21.9283 21.4292 21.9912C21.3465 22.0786 21.2642 22.1655 21.1798 22.2703C21.1774 22.2732 21.1749 22.2761 21.1725 22.279C21.041 22.4334 20.8982 22.6012 21.0637 22.8862C21.2323 23.1703 21.813 24.118 22.6667 24.8778C23.6789 25.7788 24.5156 26.1171 24.8932 26.2698C24.9269 26.2835 24.957 26.2956 24.9832 26.3066C25.2211 26.4054 25.5058 26.3807 25.68 26.1954C25.8723 25.9886 26.105 25.6615 26.3458 25.3231C26.3811 25.2734 26.4166 25.2235 26.4522 25.1737C26.6499 24.8951 26.8995 24.8599 27.1608 24.9587C27.4282 25.052 28.8391 25.7426 29.1295 25.8939C29.2038 25.9327 29.2716 25.9656 29.3326 25.9951C29.5097 26.081 29.6287 26.1387 29.6811 26.2306C29.7515 26.3542 29.7515 26.9287 29.5131 27.602C29.2746 28.2753 28.3283 28.8331 27.5734 28.9956C27.0564 29.1062 26.383 29.1933 24.1122 28.2525C21.4457 27.1487 19.6511 24.5657 19.263 24.0071C19.2285 23.9574 19.2051 23.9237 19.1932 23.9085C19.1895 23.9035 19.1852 23.8976 19.1804 23.891C18.9995 23.6445 18.0195 22.3091 18.0195 20.9292C18.0195 19.5528 18.699 18.8618 19.0041 18.5515C19.0131 18.5423 19.0218 18.5335 19.0301 18.525C19.2686 18.2822 19.6639 18.171 20.0407 18.171L20.3718 18.1834Z" fill="#00E676"/>
</svg>
