<svg width="22" height="22" viewBox="0 0 22 22" fill="none" xmlns="http://www.w3.org/2000/svg">
<path d="M7.33398 8.25L11.0007 8.25" stroke="white" stroke-width="1.7" stroke-linecap="round"/>
<path d="M2.64429 8.11135C3.26089 5.62818 5.22986 3.70823 7.72736 3.15482L8.14341 3.06263C10.0246 2.64579 11.9741 2.64579 13.8553 3.06263L14.2713 3.15482C16.7688 3.70823 18.7378 5.62818 19.3544 8.11136C19.8254 10.0083 19.8254 11.9917 19.3544 13.8886C18.7378 16.3718 16.7688 18.2918 14.2713 18.8452L13.8553 18.9374C11.9741 19.3542 10.0246 19.3542 8.14341 18.9374L7.72736 18.8452C5.22986 18.2918 3.26089 16.3718 2.64429 13.8886C2.17326 11.9917 2.17326 10.0083 2.64429 8.11135Z" fill="white" fill-opacity="0.15"/>
<path d="M2.64429 13.8886L3.46924 13.6838L2.64429 13.8886ZM2.64429 8.11135L3.46924 8.3162L2.64429 8.11135ZM19.3544 8.11136L20.1794 7.90651L19.3544 8.11136ZM19.3544 13.8886L18.5295 13.6838L19.3544 13.8886ZM13.8553 18.9374L13.6714 18.1075L13.6714 18.1075L13.8553 18.9374ZM8.14341 18.9374L8.3273 18.1075L8.14341 18.9374ZM8.14341 3.06263L8.3273 3.8925L8.14341 3.06263ZM13.8553 3.06263L14.0392 2.23276L13.8553 3.06263ZM7.72736 18.8452L7.54347 19.6751L7.72736 18.8452ZM14.2713 18.8452L14.4552 19.6751L14.2713 18.8452ZM14.2713 3.15482L14.0875 3.98469L14.2713 3.15482ZM7.72736 3.15482L7.54347 2.32495L7.54347 2.32495L7.72736 3.15482ZM17.1349 13.295L16.9824 14.1312H16.9824L17.1349 13.295ZM17.0812 13.2852L17.2337 12.449L17.2337 12.449L17.0812 13.2852ZM17.0812 8.71478L17.2337 9.55099L17.2337 9.55099L17.0812 8.71478ZM17.1349 8.70498L16.9825 7.86877L16.9824 7.86877L17.1349 8.70498ZM19.1843 9.76224C19.6144 9.95037 20.1155 9.75422 20.3037 9.32413C20.4918 8.89403 20.2956 8.39286 19.8656 8.20473L19.1843 9.76224ZM19.8656 13.7953C20.2956 13.6071 20.4918 13.106 20.3037 12.6759C20.1155 12.2458 19.6144 12.0496 19.1843 12.2378L19.8656 13.7953ZM15.196 11.5759L14.3787 11.8093L15.196 11.5759ZM15.196 10.4241L16.0133 10.6576V10.6576L15.196 10.4241ZM7.91125 3.98469L8.3273 3.8925L7.95952 2.23276L7.54347 2.32495L7.91125 3.98469ZM13.6714 3.8925L14.0875 3.98469L14.4552 2.32495L14.0392 2.23276L13.6714 3.8925ZM14.0874 18.0153L13.6714 18.1075L14.0392 19.7672L14.4552 19.6751L14.0874 18.0153ZM8.3273 18.1075L7.91125 18.0153L7.54347 19.6751L7.95952 19.7672L8.3273 18.1075ZM3.46924 13.6838C3.03161 11.9214 3.03161 10.0786 3.46924 8.3162L1.81934 7.90651C1.31491 9.93798 1.31491 12.062 1.81934 14.0935L3.46924 13.6838ZM18.5295 8.3162C18.9671 10.0786 18.9671 11.9214 18.5295 13.6838L20.1794 14.0935C20.6838 12.062 20.6838 9.93798 20.1794 7.90651L18.5295 8.3162ZM13.6714 18.1075C11.9114 18.4975 10.0873 18.4975 8.3273 18.1075L7.95952 19.7672C9.9618 20.2109 12.0369 20.2109 14.0392 19.7672L13.6714 18.1075ZM8.3273 3.8925C10.0873 3.5025 11.9114 3.5025 13.6714 3.8925L14.0392 2.23276C12.0369 1.78908 9.9618 1.78908 7.95952 2.23276L8.3273 3.8925ZM7.91125 18.0153C5.72882 17.5317 4.00811 15.8539 3.46924 13.6838L1.81934 14.0935C2.51368 16.8897 4.73091 19.0518 7.54347 19.6751L7.91125 18.0153ZM14.4552 19.6751C17.2678 19.0518 19.485 16.8897 20.1794 14.0935L18.5295 13.6838C17.9906 15.8539 16.2699 17.5317 14.0874 18.0153L14.4552 19.6751ZM14.0875 3.98469C16.2699 4.46828 17.9906 6.14607 18.5295 8.3162L20.1794 7.90651C19.485 5.1103 17.2678 2.94817 14.4552 2.32495L14.0875 3.98469ZM7.54347 2.32495C4.73091 2.94817 2.51368 5.1103 1.81934 7.90651L3.46924 8.3162C4.00811 6.14607 5.72882 4.46828 7.91125 3.98469L7.54347 2.32495ZM17.2874 12.4588L17.2337 12.449L16.9287 14.1214L16.9824 14.1312L17.2874 12.4588ZM17.2337 9.55099L17.2874 9.5412L16.9824 7.86877L16.9287 7.87857L17.2337 9.55099ZM17.2874 9.5412C17.9276 9.42447 18.588 9.50143 19.1843 9.76224L19.8656 8.20473C18.9594 7.80833 17.9555 7.69135 16.9825 7.86877L17.2874 9.5412ZM16.9824 14.1312C17.9555 14.3086 18.9594 14.1917 19.8656 13.7953L19.1843 12.2378C18.588 12.4986 17.9276 12.5755 17.2874 12.4588L16.9824 14.1312ZM16.0133 11.3424C15.9494 11.1186 15.9494 10.8814 16.0133 10.6576L14.3787 10.1907C14.2276 10.7196 14.2276 11.2804 14.3787 11.8093L16.0133 11.3424ZM16.9287 7.87857C15.708 8.10115 14.7195 8.99751 14.3787 10.1907L16.0133 10.6576C16.1765 10.0864 16.6496 9.65749 17.2337 9.55099L16.9287 7.87857ZM17.2337 12.449C16.6496 12.3425 16.1765 11.9136 16.0133 11.3424L14.3787 11.8093C14.7195 13.0025 15.708 13.8989 16.9287 14.1214L17.2337 12.449Z" fill="white"/>
</svg>
