<svg width="109" height="108" viewBox="0 0 109 108" fill="none" xmlns="http://www.w3.org/2000/svg">
<path d="M5.9785 36.6734C9.63128 21.101 21.7903 8.942 37.3626 5.28922C48.6088 2.65123 60.3129 2.65123 71.559 5.28922C87.1314 8.942 99.2904 21.101 102.943 36.6734C105.581 47.9195 105.581 59.6236 102.943 70.8697C99.2904 86.4421 87.1314 98.6011 71.559 102.254C60.3129 104.892 48.6088 104.892 37.3627 102.254C21.7903 98.6011 9.63128 86.4421 5.9785 70.8698C3.3405 59.6236 3.3405 47.9195 5.9785 36.6734Z" fill="#00E676" fill-opacity="0.15" stroke="#00E676" stroke-width="6.3076"/>
<path fill-rule="evenodd" clip-rule="evenodd" d="M41.8509 72.9196C45.5936 75.3896 49.9789 76.7068 54.4631 76.7079C54.4614 76.7079 54.4598 76.7079 54.4582 76.7079H54.4655C54.4647 76.7079 54.4639 76.7079 54.4631 76.7079C67.1126 76.7053 77.395 66.4185 77.395 53.7712C77.395 41.1223 67.1057 30.8345 54.4582 30.8345C41.8108 30.8345 31.5215 41.1223 31.5215 53.7712C31.5142 58.603 33.0444 63.3118 35.8908 67.2162L33.032 75.7368L41.8509 72.9196ZM46.6616 40.89C47.3358 40.9331 47.6872 40.9718 48.1175 42.0376L48.1204 42.0204C48.2603 42.3582 48.4512 42.8216 48.661 43.3308C49.2795 44.8323 50.0621 46.7318 50.1831 46.9835C50.3452 47.3206 50.5073 47.794 50.2778 48.2243C50.0747 48.6563 49.8959 48.862 49.5917 49.2118C49.5737 49.2326 49.5552 49.2539 49.5362 49.2758C49.3944 49.4392 49.2553 49.586 49.1169 49.7323C48.9248 49.9351 48.7337 50.1369 48.5378 50.3803C48.5321 50.387 48.5264 50.3937 48.5207 50.4004C48.2153 50.7591 47.8837 51.1486 48.2681 51.8104C48.6598 52.4703 50.0081 54.6707 51.9905 56.4351C54.3408 58.5273 56.2838 59.313 57.1605 59.6675C57.2389 59.6992 57.3088 59.7275 57.3697 59.7529C57.9219 59.9824 58.5832 59.9251 58.9877 59.4947C59.4343 59.0144 59.9746 58.2549 60.5336 57.4692C60.6157 57.3538 60.6981 57.2379 60.7808 57.1222C61.2398 56.4752 61.8193 56.3935 62.4261 56.623C63.0472 56.8396 66.3235 58.4433 66.9977 58.7947C67.1703 58.8847 67.3277 58.961 67.4692 59.0296C67.8805 59.229 68.157 59.363 68.2786 59.5765C68.4421 59.8634 68.4421 61.1974 67.8884 62.761C67.3348 64.3245 65.1372 65.6198 63.3843 65.997C62.1837 66.2538 60.6201 66.4561 55.3471 64.2714C49.1553 61.7083 44.988 55.7104 44.0868 54.4134C44.0066 54.2978 43.9522 54.2196 43.9247 54.1844C43.9161 54.1727 43.9061 54.1591 43.8948 54.1437C43.4748 53.5713 41.1992 50.4704 41.1992 47.2661C41.1992 44.07 42.7771 42.4653 43.4855 41.7449C43.5064 41.7236 43.5266 41.703 43.546 41.6833C44.0997 41.1195 45.0177 40.8613 45.8927 40.8613L46.6616 40.89Z" fill="#00E676"/>
</svg>
