<svg width="13" height="12" viewBox="0 0 13 12" fill="none" xmlns="http://www.w3.org/2000/svg">
<path fill-rule="evenodd" clip-rule="evenodd" d="M1.03906 2.79167C1.03906 1.26029 1.05546 0.75 3.08073 0.75C5.106 0.75 5.1224 1.26029 5.1224 2.79167C5.1224 4.32304 5.12886 4.83333 3.08073 4.83333C1.0326 4.83333 1.03906 4.32304 1.03906 2.79167Z" stroke="#D9F2FF" stroke-linecap="round" stroke-linejoin="round"/>
<path opacity="0.4" fill-rule="evenodd" clip-rule="evenodd" d="M7.45605 2.79167C7.45605 1.26029 7.47245 0.75 9.49772 0.75C11.523 0.75 11.5394 1.26029 11.5394 2.79167C11.5394 4.32304 11.5458 4.83333 9.49772 4.83333C7.4496 4.83333 7.45605 4.32304 7.45605 2.79167Z" stroke="#D9F2FF" stroke-linecap="round" stroke-linejoin="round"/>
<path fill-rule="evenodd" clip-rule="evenodd" d="M1.03906 9.20833C1.03906 7.67696 1.05546 7.16667 3.08073 7.16667C5.106 7.16667 5.1224 7.67696 5.1224 9.20833C5.1224 10.7397 5.12886 11.25 3.08073 11.25C1.0326 11.25 1.03906 10.7397 1.03906 9.20833Z" stroke="#D9F2FF" stroke-linecap="round" stroke-linejoin="round"/>
<path fill-rule="evenodd" clip-rule="evenodd" d="M7.45605 9.20833C7.45605 7.67696 7.47245 7.16667 9.49772 7.16667C11.523 7.16667 11.5394 7.67696 11.5394 9.20833C11.5394 10.7397 11.5458 11.25 9.49772 11.25C7.4496 11.25 7.45605 10.7397 7.45605 9.20833Z" stroke="#D9F2FF" stroke-linecap="round" stroke-linejoin="round"/>
</svg>
